<svg width="24" height="19" viewBox="0 0 25 20" fill="none" xmlns="http://www.w3.org/2000/svg">
<path d="M0.85 1C0.85 0.917157 0.917157 0.85 1 0.85H1.11627C1.17301 0.85 1.22489 0.882016 1.25034 0.93273L5.63317 9.66774C5.84302 10.086 6.2709 10.35 6.73882 10.35C7.24329 10.35 7.69721 10.0437 7.88598 9.57586L11.3691 0.943872C11.392 0.887145 11.447 0.85 11.5082 0.85H12C12.0828 0.85 12.15 0.917157 12.15 1V18C12.15 18.0828 12.0828 18.15 12 18.15H1C0.917158 18.15 0.85 18.0828 0.85 18V1Z" stroke="#000" stroke-width="2"/>
<path d="M14.85 4C14.85 2.2603 16.2603 0.85 18 0.85H20C21.7397 0.85 23.15 2.2603 23.15 4V15C23.15 16.7397 21.7397 18.15 20 18.15H18C16.2603 18.15 14.85 16.7397 14.85 15V4Z" stroke="#455F86" stroke-width="2"/>
</svg>
