<svg width="50" height="44" viewBox="0 0 50 44" fill="none" xmlns="http://www.w3.org/2000/svg">
<path d="M8.83332 26.526L24.6735 11.8489C24.6741 11.8484 24.6747 11.8479 24.6752 11.8474C24.7761 11.7566 24.8917 11.7149 25.0017 11.7149C25.1118 11.7149 25.2274 11.7566 25.3283 11.8474C25.3288 11.8479 25.3294 11.8484 25.3299 11.8489L41.1666 26.5153V42.3125C41.1666 42.6121 41.0603 42.8892 40.8861 43.0852C40.7137 43.2791 40.4934 43.3749 40.2781 43.375C40.278 43.375 40.2779 43.375 40.2778 43.375L30.5554 43.3447H30.5538C30.4456 43.3447 30.3367 43.3208 30.2329 43.2723C30.1288 43.2237 30.0301 43.1505 29.9444 43.0538C29.8586 42.9569 29.7879 42.8388 29.739 42.705C29.69 42.5712 29.6645 42.4262 29.6649 42.2787V42.2774V32.9375C29.6649 32.4083 29.4786 31.8906 29.1318 31.5005C28.7834 31.1085 28.2973 30.875 27.776 30.875H22.2205C21.6992 30.875 21.2131 31.1085 20.8647 31.5005C20.5179 31.8906 20.3316 32.4083 20.3316 32.9375V42.2842C20.3316 42.5828 20.226 42.8591 20.0527 43.055C19.8811 43.249 19.6616 43.3455 19.4468 43.3467L9.72221 43.375C9.72217 43.375 9.72212 43.375 9.72207 43.375C9.50665 43.375 9.28627 43.2792 9.11383 43.0852C8.93964 42.8892 8.83332 42.6121 8.83332 42.3125V26.526ZM41.8611 14.8281V15.0464L42.0211 15.1948L49.278 21.9242L49.618 21.5576L49.2805 21.9265C49.3377 21.9788 49.3883 22.0463 49.427 22.127C49.4656 22.2078 49.4908 22.2987 49.4993 22.3942C49.5078 22.4898 49.4994 22.5859 49.475 22.6765C49.4507 22.767 49.4114 22.8481 49.3619 22.916L47.1491 25.9422C47.149 25.9424 47.1489 25.9425 47.1488 25.9426C47.0994 26.0098 47.0416 26.0615 46.9808 26.0977C46.9202 26.1339 46.8568 26.1545 46.7944 26.1612C46.732 26.1678 46.6684 26.1607 46.6064 26.1393C46.5441 26.1177 46.4823 26.0812 46.4257 26.0286L46.4249 26.0278L26.0056 7.10785L26.0056 7.10783L26.0017 7.10422C25.7267 6.85489 25.3743 6.71101 25.0017 6.71101C24.6292 6.71101 24.2767 6.85489 24.0018 7.10422L24.0018 7.1042L23.9978 7.10786L3.57943 26.0278L3.57892 26.0282C3.52228 26.0809 3.46039 26.1173 3.39805 26.1388C3.33593 26.1602 3.27231 26.1671 3.20988 26.1604C3.14737 26.1536 3.08397 26.1328 3.02327 26.0964C2.96235 26.0599 2.90443 26.0079 2.85503 25.9403L2.855 25.9402L0.641461 22.9129L0.640615 22.9117C0.591052 22.8444 0.551677 22.7637 0.527037 22.6736C0.502394 22.5835 0.493549 22.4877 0.501571 22.3924C0.509594 22.297 0.534135 22.2062 0.572258 22.1253C0.610315 22.0445 0.660362 21.9767 0.716996 21.924C0.717067 21.9239 0.717138 21.9238 0.717209 21.9238L22.6895 1.56613C23.3482 0.956324 24.1645 0.631263 24.9974 0.631263C25.8303 0.631263 26.6466 0.956324 27.3053 1.56613L27.3053 1.56616L35.077 8.75952L35.9166 9.53668V8.39258V1.30176C35.9166 1.1058 35.9864 0.928005 36.0954 0.805299C36.2028 0.684511 36.3349 0.629883 36.4583 0.629883H41.3194C41.4428 0.629883 41.5749 0.684511 41.6823 0.805299C41.7914 0.928005 41.8611 1.1058 41.8611 1.30176V14.8281Z" fill="#EC4D37" stroke="black"/>
</svg>
