<svg width="16" height="15" viewBox="0 0 11 10" fill="none" xmlns="http://www.w3.org/2000/svg">
<path d="M5.0039 2.43613C3.58426 2.43613 2.43917 3.58083 2.43917 5C2.43917 6.41917 3.58426 7.56387 5.0039 7.56387C6.42354 7.56387 7.56863 6.41917 7.56863 5C7.56863 3.58083 6.42354 2.43613 5.0039 2.43613ZM5.0039 6.66685C4.08649 6.66685 3.33649 5.91934 3.33649 5C3.33649 4.08067 4.08426 3.33315 5.0039 3.33315C5.92354 3.33315 6.67131 4.08067 6.67131 5C6.67131 5.91934 5.92131 6.66685 5.0039 6.66685ZM8.27175 2.33125C8.27175 2.66373 8.00389 2.92927 7.67354 2.92927C7.34095 2.92927 7.07532 2.6615 7.07532 2.33125C7.07532 2.001 7.34318 1.73324 7.67354 1.73324C8.00389 1.73324 8.27175 2.001 8.27175 2.33125ZM9.97041 2.93819C9.93246 2.13712 9.74943 1.42754 9.16237 0.84291C8.57755 0.258284 7.86773 0.0753096 7.0664 0.0351445C6.2405 -0.0117148 3.76506 -0.0117148 2.93917 0.0351445C2.14006 0.0730782 1.43024 0.256053 0.843191 0.840678C0.256138 1.4253 0.0753347 2.13489 0.0351562 2.93596C-0.0117187 3.76158 -0.0117187 6.23619 0.0351562 7.06181C0.0731026 7.86288 0.256138 8.57246 0.843191 9.15709C1.43024 9.74172 2.13783 9.92469 2.93917 9.96486C3.76506 10.0117 6.2405 10.0117 7.0664 9.96486C7.86773 9.92692 8.57755 9.74395 9.16237 9.15709C9.74719 8.57246 9.93023 7.86288 9.97041 7.06181C10.0173 6.23619 10.0173 3.76381 9.97041 2.93819ZM8.90345 7.94767C8.72934 8.38503 8.39229 8.72197 7.95256 8.89825C7.29407 9.15932 5.73158 9.09907 5.0039 9.09907C4.27622 9.09907 2.71149 9.15709 2.05524 8.89825C1.61774 8.7242 1.28069 8.38726 1.10435 7.94767C0.843191 7.28941 0.903458 5.72744 0.903458 5C0.903458 4.27256 0.845423 2.70836 1.10435 2.05233C1.27846 1.61497 1.61551 1.27803 2.05524 1.10175C2.71372 0.840678 4.27622 0.900926 5.0039 0.900926C5.73158 0.900926 7.29631 0.84291 7.95256 1.10175C8.39005 1.2758 8.72711 1.61274 8.90345 2.05233C9.16461 2.71059 9.10434 4.27256 9.10434 5C9.10434 5.72744 9.16461 7.29164 8.90345 7.94767Z" fill="#595959"/>
</svg>
