<svg width="50" height="50" viewBox="0 0 50 50" fill="none" xmlns="http://www.w3.org/2000/svg">
<path d="M49.5 46.4844V49.5H0.5V46.4844C0.5 46.1766 0.814018 45.8125 1.33929 45.8125H3.51562H4.01562V45.3125V2.34375C4.01562 1.38169 4.92116 0.5 6.1942 0.5H43.8058C45.0788 0.5 45.9844 1.38169 45.9844 2.34375V45.3125V45.8125H46.4844H48.6607C49.186 45.8125 49.5 46.1766 49.5 46.4844ZM8.37277 45.2142L8.37208 45.7148H8.87277H21.4286H21.9286V45.2148V38.6719C21.9286 38.3641 22.2426 38 22.7679 38H27.2321C27.7574 38 28.0714 38.3641 28.0714 38.6719V45.2148V45.7148H28.5714H41.1272H41.6272V45.2148V4.78516V4.28667L41.1287 4.28516L8.93009 4.1875L8.42926 4.18598L8.42857 4.68681L8.37277 45.2142ZM14.7857 14.4531V10.5469C14.7857 10.2391 15.0997 9.875 15.625 9.875H20.0893C20.6146 9.875 20.9286 10.2391 20.9286 10.5469V14.4531C20.9286 14.7609 20.6146 15.125 20.0893 15.125H15.625C15.0997 15.125 14.7857 14.7609 14.7857 14.4531ZM34.375 15.125H29.9107C29.3854 15.125 29.0714 14.7609 29.0714 14.4531V10.5469C29.0714 10.2391 29.3854 9.875 29.9107 9.875H34.375C34.9003 9.875 35.2143 10.2391 35.2143 10.5469V14.4531C35.2143 14.7609 34.9003 15.125 34.375 15.125ZM20.0893 24.5H15.625C15.0997 24.5 14.7857 24.1359 14.7857 23.8281V19.9219C14.7857 19.6141 15.0997 19.25 15.625 19.25H20.0893C20.6146 19.25 20.9286 19.6141 20.9286 19.9219V23.8281C20.9286 24.1359 20.6146 24.5 20.0893 24.5ZM34.375 24.5H29.9107C29.3854 24.5 29.0714 24.1359 29.0714 23.8281V19.9219C29.0714 19.6141 29.3854 19.25 29.9107 19.25H34.375C34.9003 19.25 35.2143 19.6141 35.2143 19.9219V23.8281C35.2143 24.1359 34.9003 24.5 34.375 24.5ZM20.9286 29.2969V33.2031C20.9286 33.5109 20.6146 33.875 20.0893 33.875H15.625C15.0997 33.875 14.7857 33.5109 14.7857 33.2031V29.2969C14.7857 28.9891 15.0997 28.625 15.625 28.625H20.0893C20.6146 28.625 20.9286 28.9891 20.9286 29.2969ZM34.375 33.875H29.9107C29.3854 33.875 29.0714 33.5109 29.0714 33.2031V29.2969C29.0714 28.9891 29.3854 28.625 29.9107 28.625H34.375C34.9003 28.625 35.2143 28.9891 35.2143 29.2969V33.2031C35.2143 33.5109 34.9003 33.875 34.375 33.875Z" fill="#EC4D37" stroke="black"/>
</svg>
