<svg width="50" height="50" viewBox="0 0 50 50" fill="none" xmlns="http://www.w3.org/2000/svg">
<g clip-path="url(#clip0)">
<path d="M45.2114 17.4833L45.2114 17.4831C44.8737 15.6478 43.8538 14.1538 42.5373 13.4486L42.5357 13.4477C41.2653 12.761 39.8712 12.8676 38.6866 13.733C37.0185 14.9643 35.7474 16.9207 35.1158 19.2602C35.1157 19.2605 35.1156 19.2608 35.1155 19.2611L34.2331 22.5702L34.1906 22.7296L34.0616 22.8324L32.8116 23.8285L32 24.4753V23.4375V14.0625C32 13.3694 31.563 13 31.25 13H18.75C18.437 13 18 13.3694 18 14.0625V23.4375V24.4713L17.1896 23.8295L15.9318 22.8334L15.8018 22.7304L15.7591 22.5702L14.8762 19.2597L14.8761 19.2592C14.2529 16.9129 12.9753 14.9657 11.3061 13.7335C10.1128 12.867 8.72609 12.7614 7.45649 13.4477L7.45484 13.4486C6.13839 14.1538 5.11855 15.6477 4.78083 17.4828C4.78081 17.4829 4.7808 17.483 4.78079 17.4831L3.34333 25.3149L3.34329 25.3151C3.00602 27.148 3.3992 29.079 4.38456 30.4727L45.2114 17.4833ZM45.2114 17.4833L46.6567 25.3151C46.9936 27.1463 46.5939 29.0781 45.6148 30.4735C45.6146 30.4738 45.6144 30.4741 45.6142 30.4745L40.3654 37.8848L40.2871 37.9954L40.2753 38.1304L39.4863 47.1731C39.3603 48.6074 38.4164 49.5 37.5 49.5C37.4399 49.5 37.3842 49.4942 37.2894 49.4843L37.2867 49.484C36.2764 49.3418 35.3799 48.1263 35.5138 46.5762L36.3026 37.5167C36.3026 37.5162 36.3026 37.5157 36.3027 37.5153C36.4126 36.3267 36.8068 35.2307 37.4318 34.3412C37.432 34.3409 37.4322 34.3406 37.4324 34.3403L40.8145 29.5562L40.9388 29.3804L40.8965 29.1694L39.5215 22.3042L38.5481 22.2735L38.0169 24.2657L38.0161 24.2686C37.7205 25.4042 37.1639 26.3695 36.2612 27.1975L32.2843 30.3592C32.284 30.3594 32.2838 30.3596 32.2836 30.3597C32.0323 30.5574 31.5673 30.7023 31.2241 30.7402H18.7759C18.4328 30.7023 17.9679 30.5575 17.7165 30.3599C17.7163 30.3597 17.716 30.3595 17.7157 30.3592L13.7388 27.1975C12.8368 26.3701 12.2795 25.3953 11.9836 24.2676L11.9831 24.2657L11.4518 22.2735L10.4785 22.3042L9.10347 29.1694L9.0612 29.3804M45.2114 17.4833L9.0612 29.3804M9.0612 29.3804L9.18545 29.5562M9.0612 29.3804L9.18545 29.5562M9.18545 29.5562L12.5675 34.3403C12.5677 34.3405 12.5678 34.3407 12.568 34.341C13.1931 35.2305 13.5873 36.3266 13.6973 37.5153C13.6973 37.5157 13.6974 37.5162 13.6974 37.5167L14.4862 46.5762C14.6202 48.1278 13.7302 49.3418 12.7135 49.484L12.7106 49.4843C12.6157 49.4942 12.5601 49.5 12.5 49.5C11.5778 49.5 10.64 48.6002 10.5137 47.1733L9.18545 29.5562ZM46.2118 36.0768L49.3441 45.8653L49.8193 45.7132L49.3443 45.8661C49.803 47.2906 49.2161 48.8201 48.205 49.3287L48.2015 49.3305C47.9706 49.4489 47.7368 49.5 47.5 49.5C46.7745 49.5 45.9966 48.9495 45.6559 47.8847L45.6558 47.8846L43.5225 41.2227L43.6581 39.6806L46.2118 36.0768ZM9.63456 37.8848L4.38479 30.473L10.5137 47.1728L9.72465 38.1304L9.71287 37.9954L9.63456 37.8848ZM0.65561 45.8661L0.655879 45.8653L3.78818 36.0768L6.34188 39.6806L6.47745 41.2227L4.34449 47.8834C4.34444 47.8836 4.34438 47.8838 4.34432 47.884C4.12399 48.5657 3.71473 49.0496 3.25789 49.2985C2.80998 49.5424 2.29661 49.5742 1.79293 49.3277C0.78302 48.818 0.197295 47.2897 0.65561 45.8661ZM13.25 4.6875C13.25 7.10913 11.6958 8.875 9.99998 8.875C8.30416 8.875 6.74998 7.10913 6.74998 4.6875C6.74998 2.26587 8.30416 0.5 9.99998 0.5C11.6958 0.5 13.25 2.26587 13.25 4.6875ZM43.25 4.6875C43.25 7.10913 41.6958 8.875 40 8.875C38.3042 8.875 36.75 7.10913 36.75 4.6875C36.75 2.26587 38.3042 0.5 40 0.5C41.6958 0.5 43.25 2.26587 43.25 4.6875Z" fill="#455F86" stroke="#455F86"/>
</g>
<defs>
<clipPath id="clip0">
<rect width="50" height="50" fill="white"/>
</clipPath>
</defs>
</svg>
