<svg width="15" height="14" viewBox="0 0 10 9" fill="none" xmlns="http://www.w3.org/2000/svg">
<path d="M8.97207 2.0241C8.97842 2.11293 8.97842 2.20178 8.97842 2.29061C8.97842 4.99998 6.91625 8.12182 3.14721 8.12182C1.98603 8.12182 0.907363 7.78551 0 7.20178C0.16498 7.2208 0.323594 7.22715 0.494922 7.22715C1.45303 7.22715 2.33502 6.90355 3.03934 6.35152C2.13832 6.33248 1.38324 5.74238 1.12309 4.9302C1.25 4.94922 1.37689 4.96191 1.51016 4.96191C1.69416 4.96191 1.87818 4.93652 2.04949 4.89213C1.11041 4.70176 0.406074 3.87689 0.406074 2.8807V2.85533C0.678906 3.00762 0.996191 3.10279 1.33246 3.11547C0.78043 2.74744 0.41877 2.11928 0.41877 1.40861C0.41877 1.02791 0.520273 0.678926 0.697949 0.374355C1.70684 1.61801 3.22334 2.43018 4.92383 2.51902C4.89211 2.36674 4.87307 2.20813 4.87307 2.04949C4.87307 0.920039 5.78678 0 6.92256 0C7.51266 0 8.04564 0.247461 8.42002 0.647207C8.8832 0.558379 9.32736 0.387051 9.72078 0.152285C9.56848 0.628184 9.24488 1.02793 8.81977 1.28172C9.23221 1.23732 9.63195 1.12309 9.99996 0.964473C9.72082 1.37055 9.37182 1.73221 8.97207 2.0241Z" fill="#595959"/>
</svg>
