<svg width="100" height="100" viewBox="0 0 69 69" fill="none" xmlns="http://www.w3.org/2000/svg">
<path d="M39.8906 51.7508H29.1094C27.317 51.7508 25.875 50.3088 25.875 48.5164V25.8758H14.0561C11.6572 25.8758 10.4578 22.9784 12.1559 21.2803L32.6537 0.768982C33.6645 -0.24176 35.3221 -0.24176 36.3328 0.768982L56.8441 21.2803C58.5422 22.9784 57.3428 25.8758 54.9439 25.8758H43.125V48.5164C43.125 50.3088 41.683 51.7508 39.8906 51.7508ZM69 50.6727V65.7664C69 67.5588 67.558 69.0008 65.7656 69.0008H3.23438C1.44199 69.0008 0 67.5588 0 65.7664V50.6727C0 48.8803 1.44199 47.4383 3.23438 47.4383H21.5625V48.5164C21.5625 52.6807 24.9451 56.0633 29.1094 56.0633H39.8906C44.0549 56.0633 47.4375 52.6807 47.4375 48.5164V47.4383H65.7656C67.558 47.4383 69 48.8803 69 50.6727ZM52.2891 62.5321C52.2891 61.0496 51.0762 59.8367 49.5938 59.8367C48.1113 59.8367 46.8984 61.0496 46.8984 62.5321C46.8984 64.0145 48.1113 65.2274 49.5938 65.2274C51.0762 65.2274 52.2891 64.0145 52.2891 62.5321ZM60.9141 62.5321C60.9141 61.0496 59.7012 59.8367 58.2188 59.8367C56.7363 59.8367 55.5234 61.0496 55.5234 62.5321C55.5234 64.0145 56.7363 65.2274 58.2188 65.2274C59.7012 65.2274 60.9141 64.0145 60.9141 62.5321Z" fill="#F2F2F2"/>
</svg>
